<?xml version="1.0" standalone="no"?>
<!DOCTYPE svg PUBLIC "-//W3C//DTD SVG 20010904//EN"
 "http://www.w3.org/TR/2001/REC-SVG-20010904/DTD/svg10.dtd">
<svg version="1.0" xmlns="http://www.w3.org/2000/svg"
 width="500.000000pt" height="500.000000pt" viewBox="0 0 500.000000 500.000000"
 preserveAspectRatio="xMidYMid meet">

<g transform="translate(0.000000,500.000000) scale(0.100000,-0.100000)"
fill="#000000" stroke="none">
<path d="M2515 3093 c-56 -12 -165 -47 -165 -52 0 -3 35 -23 78 -43 183 -87
344 -296 402 -522 19 -75 20 -110 20 -700 0 -571 -2 -628 -19 -706 -11 -47
-31 -111 -45 -143 -50 -113 -165 -265 -189 -250 -6 3 -7 2 -4 -4 4 -6 -9 -24
-28 -42 -27 -24 -35 -27 -35 -15 0 12 -5 10 -21 -10 -11 -14 -29 -26 -39 -26
-10 0 -22 -4 -25 -10 -3 -5 -11 -10 -16 -10 -6 0 -8 4 -5 9 4 5 0 12 -6 15 -7
3 -2 3 11 0 16 -4 21 -3 16 5 -5 8 1 10 19 5 21 -5 28 -2 35 17 5 13 7 25 6
27 -6 7 -40 9 -45 3 -23 -28 -140 -63 -140 -42 0 6 -17 11 -41 11 -24 0 -38 4
-34 10 3 6 0 10 -8 10 -8 0 -17 -6 -20 -14 -3 -7 -19 -18 -36 -24 -28 -10 -34
-8 -61 19 -16 17 -30 27 -30 23 0 -4 -8 -1 -18 7 -10 8 2 -5 27 -28 35 -32 51
-41 68 -37 14 4 23 2 23 -5 0 -6 -5 -11 -11 -11 -7 0 0 -9 15 -21 14 -11 31
-17 38 -13 7 4 10 4 6 -1 -11 -11 23 -27 164 -77 l123 -43 282 -3 c226 -3 299
0 367 12 167 32 311 104 431 218 98 93 168 193 213 308 68 170 67 160 66 825
-1 586 -1 602 -23 690 -75 300 -324 553 -616 625 -72 18 -113 20 -395 19 -173
-1 -324 -3 -335 -6z m-280 -2503 c-3 -5 -14 -10 -23 -10 -15 0 -15 2 -2 10 20
13 33 13 25 0z m-5 -35 c-7 -8 -17 -12 -23 -8 -6 4 -3 9 9 14 27 11 28 11 14
-6z m225 -5 c-3 -5 -12 -10 -18 -10 -7 0 -6 4 3 10 19 12 23 12 15 0z"/>
<path d="M2533 643 c16 -16 18 -16 35 2 14 16 14 17 0 6 -11 -8 -18 -9 -23 -1
-3 5 -11 10 -18 10 -6 0 -4 -7 6 -17z"/>
<path d="M2130 624 c0 -8 5 -12 10 -9 6 3 10 10 10 16 0 5 -4 9 -10 9 -5 0
-10 -7 -10 -16z"/>
<path d="M2357 634 c-8 -8 1 -24 14 -24 5 0 9 7 9 15 0 15 -12 20 -23 9z"/>
</g>
</svg>
